<svg width="711" height="275" viewBox="0 0 711 275" fill="none" xmlns="http://www.w3.org/2000/svg">
<g clip-path="url(#clip0_6_2)">
<path d="M283.544 186.2C283.203 186.2 283.032 186.029 283.032 185.688C283.032 184.835 284.312 183.043 286.872 180.312C289.603 177.581 290.968 172.12 290.968 163.928C290.968 161.539 290.712 157.187 290.2 150.872C290.029 147.8 289.688 144.301 289.176 140.376C288.835 136.28 288.323 131.757 287.64 126.808C285.592 109.571 279.789 93.1013 270.232 77.4C258.285 58.1147 244.12 48.472 227.736 48.472C209.304 48.472 200.088 59.1387 200.088 80.472C200.088 105.219 203.501 120.152 210.328 125.272C212.888 126.979 214.168 128.6 214.168 130.136C214.168 130.648 213.912 130.904 213.4 130.904C212.547 130.904 211.437 130.392 210.072 129.368C197.272 119.811 190.872 105.731 190.872 87.128C190.872 58.456 203.331 44.12 228.248 44.12C246.851 44.12 263.235 54.104 277.4 74.072C288.493 89.7733 295.576 106.243 298.648 123.48C301.208 137.475 302.488 146.947 302.488 151.896C302.488 153.773 302.403 155.651 302.232 157.528C302.061 159.235 301.805 160.771 301.464 162.136C300.269 168.28 297.283 173.997 292.504 179.288C288.408 183.896 285.421 186.2 283.544 186.2ZM263.832 264.536C255.469 264.536 251.288 260.525 251.288 252.504C251.288 249.261 251.885 246.36 253.08 243.8C257.005 234.072 265.197 221.016 277.656 204.632C290.456 188.248 301.72 175.789 311.448 167.256C315.715 163.501 321.091 158.552 327.576 152.408C334.232 146.093 342.083 138.499 351.128 129.624C365.805 115.288 375.789 103.256 381.08 93.528C381.592 92.6747 381.848 91.9067 381.848 91.224C381.848 90.3707 381.251 89.944 380.056 89.944C376.131 89.944 372.547 91.8213 369.304 95.576C367.597 97.624 365.549 98.648 363.16 98.648C361.795 98.648 361.112 98.136 361.112 97.112C361.112 96.7707 361.539 95.9173 362.392 94.552C365.293 91.48 369.048 88.4933 373.656 85.592C378.947 82.3493 383.384 80.728 386.968 80.728C391.917 80.728 394.392 83.1173 394.392 87.896C394.392 89.944 393.624 91.9067 392.088 93.784C388.163 98.5627 383.213 104.109 377.24 110.424C371.437 116.739 364.44 123.992 356.248 132.184C348.227 140.376 340.803 147.715 333.976 154.2C327.149 160.685 320.749 166.488 314.776 171.608C310.509 175.363 305.645 180.397 300.184 186.712C294.723 193.027 288.749 200.792 282.264 210.008C267.075 230.829 259.48 245.251 259.48 253.272C259.48 257.027 260.845 258.904 263.576 258.904C264.429 258.904 265.368 258.648 266.392 258.136C267.757 257.453 269.037 257.112 270.232 257.112C271.427 257.112 272.28 257.539 272.792 258.392C273.304 258.904 273.56 259.501 273.56 260.184C273.56 263.085 270.317 264.536 263.832 264.536Z" fill="#D4A37A"/>
<path d="M358.252 198.744C354.327 198.744 352.364 196.44 352.364 191.832C352.364 188.589 353.559 184.408 355.948 179.288C362.092 167.853 372.247 156.077 386.412 143.96C403.649 129.624 417.644 122.456 428.396 122.456C435.052 122.456 439.66 123.736 442.22 126.296C446.145 123.395 450.327 121.944 454.764 121.944C455.617 121.944 456.044 122.2 456.044 122.712C456.044 123.053 455.873 123.395 455.532 123.736C453.143 126.467 450.412 130.136 447.34 134.744C444.439 139.352 441.281 145.069 437.868 151.896C429.847 167.597 425.836 179.117 425.836 186.456C425.836 188.163 425.921 189.187 426.092 189.528V189.784C426.092 190.808 425.58 192.088 424.556 193.624C423.532 194.989 422.508 195.672 421.484 195.672C419.436 195.672 418.412 192.259 418.412 185.432C418.412 173.827 421.057 162.733 426.348 152.152L404.588 170.328C396.396 177.155 388.972 182.787 382.316 187.224C375.831 191.491 370.199 194.733 365.42 196.952C363.031 198.147 360.641 198.744 358.252 198.744ZM369.772 186.968C370.796 186.968 371.905 186.627 373.1 185.944C375.319 185.091 379.159 182.872 384.62 179.288C390.081 175.704 395.969 171.267 402.284 165.976C410.135 159.491 416.62 153.603 421.74 148.312C427.031 142.851 430.871 138.755 433.26 136.024C432.236 133.123 430.188 131.672 427.116 131.672C421.143 131.672 411.585 136.792 398.444 147.032C383.596 158.979 373.868 168.792 369.26 176.472C367.724 179.203 366.956 181.763 366.956 184.152C366.956 186.029 367.895 186.968 369.772 186.968ZM442.78 197.976C441.756 197.976 441.244 197.549 441.244 196.696L441.756 194.904C442.097 194.221 442.524 193.453 443.036 192.6C443.719 191.747 444.401 190.893 445.084 190.04L449.18 183.896C449.692 183.213 450.375 182.36 451.228 181.336C452.081 180.141 453.02 178.691 454.044 176.984L461.98 164.184C464.881 160.259 467.953 154.627 471.196 147.288C471.367 146.264 471.537 145.069 471.708 143.704C471.879 142.168 472.049 140.461 472.22 138.584C472.561 137.731 475.633 136.024 481.436 133.464C486.897 130.733 490.737 129.368 492.956 129.368C493.809 129.368 494.236 129.624 494.236 130.136C494.236 130.477 493.98 131.075 493.468 131.928C490.567 135.853 487.495 140.291 484.252 145.24C481.18 150.019 477.937 155.224 474.524 160.856L491.42 146.776C493.468 145.069 495.089 143.789 496.284 142.936C497.649 141.912 498.503 141.229 498.844 140.888C511.473 132.184 522.567 127.832 532.124 127.832C533.319 127.832 533.916 129.027 533.916 131.416C533.916 133.805 533.319 136.451 532.124 139.352C531.1 142.083 529.905 143.448 528.54 143.448C528.199 143.448 527.857 143.277 527.516 142.936V142.424C527.516 142.083 527.516 141.741 527.516 141.4C527.687 141.059 527.772 140.547 527.772 139.864V139.096C527.772 137.901 527.431 137.304 526.748 137.304C512.241 137.304 494.833 146.691 474.524 165.464C472.647 167.341 470.428 169.987 467.868 173.4C465.308 176.813 462.407 180.909 459.164 185.688L456.604 191.32L449.692 195.16C446.279 197.037 443.975 197.976 442.78 197.976ZM534.242 200.28C528.951 200.28 524.343 198.915 520.418 196.184C516.663 193.453 514.786 190.211 514.786 186.456C514.786 185.091 515.213 182.957 516.066 180.056C521.015 165.891 533.986 149.336 554.978 130.392L567.778 125.784C575.97 123.053 580.407 121.773 581.09 121.944C587.405 122.968 590.562 125.613 590.562 129.88C590.562 138.072 583.991 146.179 570.85 154.2C559.074 161.368 548.749 164.952 539.874 164.952C539.021 164.952 538.167 164.952 537.314 164.952C536.461 164.781 535.607 164.611 534.754 164.44C533.047 166.829 531.511 169.048 530.146 171.096C528.781 173.144 527.671 175.107 526.818 176.984C525.453 180.227 524.77 182.957 524.77 185.176C524.77 190.808 527.074 193.624 531.682 193.624C536.29 193.624 543.714 191.576 553.954 187.48C563.853 183.725 570.594 180.397 574.178 177.496C575.543 176.643 576.738 176.216 577.762 176.216C578.786 176.216 579.298 176.643 579.298 177.496C579.127 178.52 578.274 179.629 576.738 180.824C574.178 182.701 571.191 184.664 567.778 186.712C564.535 188.589 560.866 190.637 556.77 192.856C546.359 197.805 538.85 200.28 534.242 200.28ZM547.81 159.32C553.954 159.32 560.439 155.992 567.266 149.336C573.751 142.851 576.994 137.475 576.994 133.208C576.994 130.819 575.885 129.539 573.666 129.368C566.327 128.173 555.319 137.304 540.642 156.76C542.349 158.467 544.738 159.32 547.81 159.32ZM600.51 199.512C598.291 200.024 595.475 199.085 592.062 196.696C588.137 193.795 585.918 190.04 585.406 185.432C588.819 175.363 597.609 160.344 611.774 140.376C625.939 120.408 645.395 95.4053 670.142 65.368C670.825 64.1733 674.665 62.296 681.662 59.736C688.147 57.0053 692.585 55.64 694.974 55.64C697.363 55.64 698.558 56.4933 698.558 58.2C698.558 59.736 697.193 60.504 694.462 60.504C691.561 60.504 686.185 64.4293 678.334 72.28C668.777 81.496 653.758 99.5867 633.278 126.552C609.726 157.443 597.95 176.728 597.95 184.408C597.95 186.115 598.377 187.907 599.23 189.784C600.083 191.661 601.449 192.6 603.326 192.6C604.35 192.6 606.313 192.003 609.214 190.808C612.286 189.613 615.614 188.163 619.198 186.456C622.782 184.749 626.195 183.043 629.438 181.336C632.681 179.459 635.07 178.008 636.606 176.984C636.606 180.397 636.179 182.36 635.326 182.872C633.961 183.555 632.595 184.237 631.23 184.92C630.035 185.603 628.755 186.371 627.39 187.224C626.195 187.907 624.915 188.675 623.55 189.528C622.185 190.211 620.819 190.979 619.454 191.832C612.457 195.757 606.142 198.317 600.51 199.512ZM630.244 199.256C628.537 199.256 627.684 198.744 627.684 197.72C627.684 197.208 627.94 196.611 628.452 195.928C629.817 193.709 631.353 191.32 633.06 188.76C634.937 186.2 636.815 183.555 638.692 180.824C640.569 177.923 642.617 174.936 644.836 171.864C647.225 168.621 649.615 165.208 652.004 161.624C655.076 157.357 657.039 153.688 657.892 150.616C658.063 149.933 658.148 149.251 658.148 148.568C658.148 147.715 658.233 146.947 658.404 146.264L659.172 141.912C659.513 140.376 662.841 138.243 669.156 135.512C673.764 133.293 677.348 132.184 679.908 132.184C681.273 132.184 681.785 132.696 681.444 133.72C680.249 137.816 677.519 142.765 673.252 148.568L660.708 165.72C659.172 167.939 657.124 170.584 654.564 173.656C652.175 176.557 649.359 180.141 646.116 184.408C646.457 184.237 647.14 183.981 648.164 183.64C649.359 183.128 650.895 182.531 652.772 181.848C654.649 181.165 656.953 180.397 659.684 179.544C662.415 178.52 665.657 177.411 669.412 176.216C671.801 175.363 674.788 174.424 678.372 173.4C681.956 172.205 686.223 171.011 691.172 169.816C692.196 169.816 692.708 170.328 692.708 171.352V171.864C692.708 172.547 692.196 173.059 691.172 173.4C667.449 179.715 649.188 187.651 636.388 197.208C634.511 198.573 632.463 199.256 630.244 199.256ZM684.004 99.672C683.151 99.672 682.297 98.9893 681.444 97.624C680.591 96.088 680.164 94.8933 680.164 94.04C680.164 92.6747 680.932 91.3947 682.468 90.2C684.004 88.8347 685.711 87.7253 687.588 86.872C689.636 86.0187 691.172 85.592 692.196 85.592C693.22 85.592 693.732 85.848 693.732 86.36C693.732 87.2133 693.476 88.152 692.964 89.176C692.623 90.0293 692.025 91.1387 691.172 92.504C690.319 93.528 689.551 94.9787 688.868 96.856C688.356 98.7333 686.735 99.672 684.004 99.672Z" fill="#3A3A3A"/>
<path fill-rule="evenodd" clip-rule="evenodd" d="M21.0264 45.3229C13.5888 52.3142 10.9676 57.167 10.3907 65.0141C9.85265 72.3388 12.4258 77.4569 18.1561 80.4597C20.7466 81.8171 20.8474 82.2107 19.6465 86.2906L18.8348 89.0484L20.1579 90.2593C21.6892 91.6612 21.8335 93.2799 20.6464 95.7396C19.2557 98.6197 20.0219 100.834 23.5698 104.189C26.9956 107.429 27.4472 109.038 25.317 110.417C23.2671 111.743 23.5837 113.834 26.142 115.866C33.0844 121.378 34.0429 122.725 33.512 126.224C33.0609 129.193 34.0127 130.613 36.9393 131.341C40.5102 132.229 42.9621 135.648 42.9621 139.739C42.9621 142.529 44.1083 143.863 46.8973 144.322C47.9677 144.498 49.0924 144.716 49.3967 144.807C49.7005 144.897 51.4134 148.42 53.203 152.635C55.3659 157.729 56.9182 160.682 57.8332 161.442C58.5896 162.071 60.9045 163.119 62.9769 163.771C66.3576 164.835 67.1299 165.341 70.4937 168.7C74.6825 172.883 74.4242 172.819 81.4398 171.385C84.6635 170.726 87.5113 171.063 93.8503 172.853C101.784 175.095 102.771 173.736 99.4057 165.2C97.1394 159.45 96.4843 153.734 97.9133 152.175C98.393 151.65 99.4021 151.071 100.155 150.888C101.703 150.51 104.337 148.236 104.337 147.277C104.337 146.928 102.898 145.57 101.14 144.259C96.6802 140.932 96.6909 140.951 100.05 142.291C103.471 143.656 109.605 144.762 111.352 144.329C112.218 144.114 112.52 143.676 112.52 142.634C112.52 140.556 111.637 140.018 108.198 140.005C102.253 139.981 99.8854 138.898 89.5045 131.452C86.4572 129.266 82.0935 127.652 77.9139 127.166C75.2538 126.857 68.1114 127.666 67.3662 128.362C67.1452 128.568 68.25 129.579 69.8211 130.609C73.2903 132.885 76.2951 137.221 77.8049 142.132C79.1823 146.61 78.7793 147.551 76.981 144.058C74.705 139.639 73.2868 138.153 68.7788 135.463C63.7983 132.492 60.3347 129.526 57.2869 125.624C56.0717 124.069 54.8846 122.986 54.6489 123.219C54.4136 123.452 54.0771 125 53.9011 126.659C53.5871 129.631 53.6178 129.727 55.9945 133.156L58.407 136.637L54.3926 133.869C51.3868 131.797 49.25 129.715 45.8877 125.582C36.5633 114.121 32.0876 106.444 29.424 97.3436C27.7392 91.586 26.5424 84.33 26.948 82.3279C27.2641 80.7669 29.5487 78.787 38.3591 72.4424C44.3799 68.1064 45.347 63.7602 41.927 56.4082C41.0222 54.4633 40.2131 53.0992 40.1297 53.3771C40.0458 53.655 39.8341 54.728 39.6592 55.7621C39.2408 58.234 37.3121 60.4219 33.8475 62.3533C32.2978 63.2171 29.6111 65.2349 27.8773 66.8373L24.7242 69.7502L24.1683 66.2003C23.8619 64.2482 22.9597 61.3752 22.1628 59.8162C19.6915 54.9816 20.6367 49.1355 24.7938 43.5416C25.833 42.1437 26.4447 41 26.1542 41C25.8632 41 23.5555 42.9455 21.0264 45.3229ZM129.992 112.246C125.636 112.836 121.824 114.138 121.228 115.238C120.539 116.509 121.019 116.778 123.985 116.783C128.547 116.792 132.143 119.025 135.671 124.041C136.168 124.747 139.368 127.17 142.783 129.424C148.878 133.448 149.034 133.517 151.402 133.195C154.926 132.716 162.255 134.129 168.338 136.459C171.225 137.565 173.686 138.37 173.807 138.25C173.929 138.13 172.42 136.33 170.454 134.251C167.942 131.593 166.146 129.04 164.413 125.659C162.502 121.931 161.594 120.689 160.377 120.14C159.513 119.75 155.814 118.048 152.158 116.357C148.501 114.667 144.473 113.066 143.207 112.799C139.53 112.023 133.502 111.771 129.992 112.246ZM0 120.428C0 122.897 2.14606 130.78 4.25325 136.052C6.65299 142.056 9.88231 147.915 14.8409 155.266C25.9512 171.737 37.908 182.941 51.4011 189.524C58.3354 192.907 61.3719 193.775 69.0463 194.568C71.9999 194.873 75.7934 195.361 77.4766 195.651C79.1598 195.942 83.8616 196.265 87.9246 196.369C95.312 196.558 95.313 196.558 99.5254 198.555C103.374 200.379 104.001 200.528 106.78 200.279C110.125 199.979 110.778 200.383 110.259 202.427C109.82 204.152 107.071 207.1 104.897 208.176C103.886 208.676 101.353 209.491 99.2702 209.988C96.1585 210.729 95.1862 211.215 93.8227 212.711C86.0286 221.263 83.0427 223.785 77.3937 226.586C73.678 228.429 73.6238 228.88 77.1222 228.831C80.8813 228.779 83.0944 229.494 88.2008 232.414L92.2668 234.74L97.1512 234.684C101.405 234.636 103.882 234.169 116.356 231.056C138.563 225.513 139.677 225.042 141.926 220.247L143.092 217.761L143.917 220.152C145.014 223.332 144.956 225.141 143.676 227.754C142.024 231.124 138.592 233.783 134.055 235.205C131.868 235.891 130.501 236.548 130.932 236.705C133.185 237.529 136.802 237.998 140.906 238C146.47 238.003 150.574 236.734 156.184 233.281C161.312 230.124 163.068 227.398 163.899 221.307L164.215 218.989L167.904 219.707C170.411 220.195 173.27 220.332 176.829 220.136L182.066 219.847L183.382 222.413C185.149 225.857 188.411 229.26 191.362 230.737C196.963 233.541 205.86 235.205 208.925 234.023C209.868 233.659 209.83 233.569 208.414 232.837C205.084 231.113 201.14 225.903 199.414 220.948C198.346 217.882 198.075 210.852 198.962 209.216C199.456 208.304 199.669 208.341 203.659 210.028C212.198 213.637 214.627 214.027 228.62 214.027H241.151L247.701 211.811C251.304 210.592 254.757 209.179 255.373 208.67C256.479 207.758 256.442 207.745 252.597 207.729C234.589 207.651 215.173 196.618 207.819 182.283C206.449 179.612 206.634 179.636 210.463 182.625C217.566 188.17 224.07 188.413 228.225 183.29C229.584 181.614 229.345 181.408 226.437 181.746C224.468 181.975 223.195 181.828 221.706 181.199C220.586 180.726 218.634 180.027 217.368 179.645C216.102 179.264 213.965 178.262 212.619 177.418C209.185 175.267 201.588 167.925 196.917 162.245C189.545 153.279 182.29 147.614 174.243 144.537C168.837 142.471 158.026 139.46 157.395 139.845C156.695 140.273 157.664 140.749 162.973 142.583C167.49 144.144 177.302 149.019 182.539 152.304C185.954 154.447 193.795 163.366 195.902 167.504C196.845 169.359 197.422 171.272 197.422 172.556C197.423 174.721 198.256 176.613 200.639 179.863C202.282 182.102 204.197 189.234 203.965 192.249C203.831 193.998 203.497 194.437 200.957 196.207C198.275 198.077 197.852 198.206 194.053 198.32C189.135 198.466 187.914 199.052 183.9 203.192C181.688 205.473 179.766 206.848 176.822 208.255C171.251 210.916 168.32 211.418 160.091 211.12C154.03 210.902 152.458 210.65 147.299 209.07C127.223 202.925 125.076 201.864 114.644 192.949C104.377 184.174 101.621 182.1 99.3295 181.423C98.2856 181.115 93.2432 180.655 88.1235 180.401C78.0387 179.901 73.8683 179.148 54.9716 174.412C38.5529 170.297 33.9299 167.332 20.3912 152.232C11.0904 141.86 7.55418 136.379 2.97973 125.249C1.58039 121.846 0.338071 118.964 0.217879 118.846C0.0981992 118.728 0 119.439 0 120.428ZM121.957 139.205C119.877 140.109 118.852 141.778 118.182 145.358C117.696 147.958 117.275 148.682 114.84 151.121C110.451 155.513 109.442 159.017 110.703 165.49C111.18 167.944 112.363 171.281 113.759 174.116C115.609 177.872 116.851 179.558 120.378 183.097C125.932 188.67 132.015 193.133 137.837 195.905C144.934 199.285 147.756 199.861 157.272 199.872C167.82 199.885 170.587 199.2 180.921 194.027C186.613 191.177 189.538 190.003 191.571 189.752C193.667 189.493 194.618 189.099 195.345 188.185C196.587 186.626 196.268 185.472 192.891 179.298C191.484 176.726 189.781 173.117 189.106 171.278C187.344 166.476 185.521 163.648 181.478 159.444C175.767 153.506 163.735 145.989 157.293 144.336C155.513 143.879 152.088 143.553 149.065 143.553C143.908 143.553 143.877 143.561 141.548 145.353C137.355 148.58 129.15 148.943 126.202 146.032C124.842 144.688 124.723 144.296 124.879 141.669C125.073 138.415 124.632 138.044 121.957 139.205ZM147.299 149.184C142.291 150.733 142.405 151.131 147.856 151.131C153.634 151.131 157.376 151.996 162.898 154.608C167.918 156.983 172.436 160.305 176.25 164.426C179.378 167.806 179.143 166.832 175.656 161.957C173.268 158.618 168.576 154.104 164.892 151.601C159.694 148.068 153.611 147.233 147.299 149.184ZM158.333 159.134C160.886 160.184 163.798 161.546 164.805 162.16C168.61 164.483 172.36 169.777 172.36 172.827C172.36 174.044 171.953 174.621 170.364 175.66C165.91 178.572 158.47 179.254 151.2 177.417C145.496 175.977 143.057 174.762 139.807 171.746C136.52 168.695 136.867 169.882 140.394 173.757C143.24 176.884 148.24 179.503 153.625 180.686C156.464 181.31 159.348 181.475 165.263 181.352C172.537 181.202 173.346 181.088 176.049 179.837C179.63 178.179 180.081 177.029 178.517 173.538C177.062 170.288 169.06 162.547 164.935 160.399C161.552 158.637 157.032 157.185 155.005 157.209C154.159 157.219 155.341 157.903 158.333 159.134ZM118.146 163.9C118.146 166.373 121.138 173.386 124.019 177.662C129.036 185.11 135.514 189.598 145.212 192.346C149.486 193.557 150.538 193.663 156.163 193.448C161.546 193.242 162.974 192.993 166.734 191.607C170.771 190.118 178.188 186.027 175.508 186.767C166.589 189.229 155.886 189.727 149.043 187.998C137.64 185.118 128.691 178.255 120.575 166.17C118.518 163.105 118.146 162.758 118.146 163.9Z" fill="#3A3A3A"/>
</g>
<defs>
<clipPath id="clip0_6_2">
<rect width="711" height="275" fill="white"/>
</clipPath>
</defs>
</svg>
